<svg xmlns="http://www.w3.org/2000/svg" width="960" height="540" viewBox="0 0 960 540">
  <defs><style>.bg{fill:#f8fafc}.title{font:700 28px Arial,'PingFang SC','Microsoft YaHei',sans-serif;fill:#172033}.txt{font:19px Arial,'PingFang SC','Microsoft YaHei',sans-serif;fill:#263248}.small{font:16px Arial,'PingFang SC','Microsoft YaHei',sans-serif;fill:#536078}.axis{stroke:#637189;stroke-width:3}.curve{fill:none;stroke:#3478f6;stroke-width:6}.guide{stroke:#ff8a3d;stroke-width:2.5;stroke-dasharray:8 7}.dot{fill:#ff8a3d;stroke:#fff;stroke-width:3}.band{fill:#ff8a3d;opacity:.12}</style></defs>
  <rect class="bg" width="960" height="540" rx="20"/><text x="42" y="52" class="title">−3 dB 半功率带宽与阻尼比</text>
  <line x1="105" y1="450" x2="885" y2="450" class="axis"/><line x1="105" y1="450" x2="105" y2="95" class="axis"/><text x="894" y="457" class="txt">ω</text><text x="44" y="105" class="txt">幅值</text>
  <path d="M110 432 C260 425 360 405 425 300 C455 248 475 138 500 112 C525 138 545 248 575 300 C640 405 740 425 880 432" class="curve"/>
  <rect x="420" y="278" width="160" height="172" class="band"/><line x1="105" y1="280" x2="580" y2="280" class="guide"/><line x1="420" y1="280" x2="420" y2="450" class="guide"/><line x1="580" y1="280" x2="580" y2="450" class="guide"/><line x1="500" y1="112" x2="500" y2="450" class="guide"/>
  <circle cx="420" cy="280" r="8" class="dot"/><circle cx="580" cy="280" r="8" class="dot"/><circle cx="500" cy="112" r="8" class="dot"/>
  <text x="112" y="270" class="small">峰值 × 0.707（−3 dB）</text><text x="500" y="94" text-anchor="middle" class="small">共振峰</text><text x="420" y="482" text-anchor="middle" class="txt">ω₁</text><text x="500" y="482" text-anchor="middle" class="txt">ωᵣ</text><text x="580" y="482" text-anchor="middle" class="txt">ω₂</text><text x="500" y="520" text-anchor="middle" class="txt">ζ ≈ (ω₂ − ω₁) / (2ωᵣ)</text>
</svg>
