<svg xmlns="http://www.w3.org/2000/svg" viewBox="0 0 1600 900" role="img" aria-labelledby="title desc">
  <title id="title">AIR GEAR 450 II 无刷电机、电调与 FOC</title>
  <desc id="desc">无刷外转子电机通过三相线连接电调，旁边标注 920KV、4S、20A 与 FOC。</desc>
  <defs>
    <linearGradient id="background" x1="0" y1="0" x2="1" y2="1">
      <stop offset="0" stop-color="#07131c"/>
      <stop offset="0.55" stop-color="#102b38"/>
      <stop offset="1" stop-color="#0a1722"/>
    </linearGradient>
    <radialGradient id="motor" cx="42%" cy="38%" r="65%">
      <stop offset="0" stop-color="#526b77"/>
      <stop offset="0.62" stop-color="#223743"/>
      <stop offset="1" stop-color="#0a151c"/>
    </radialGradient>
    <linearGradient id="accent" x1="0" y1="0" x2="1" y2="0">
      <stop offset="0" stop-color="#18bfef"/>
      <stop offset="1" stop-color="#79e2f7"/>
    </linearGradient>
    <filter id="glow" x="-50%" y="-50%" width="200%" height="200%">
      <feGaussianBlur stdDeviation="12" result="blur"/>
      <feMerge><feMergeNode in="blur"/><feMergeNode in="SourceGraphic"/></feMerge>
    </filter>
  </defs>

  <rect width="1600" height="900" fill="url(#background)"/>
  <path d="M0 690C280 600 530 760 820 666s490-178 780-78v312H0Z" fill="#081018" opacity=".72"/>
  <g opacity=".17" stroke="#7edcf5" stroke-width="2">
    <path d="M0 148H1600M0 298H1600M0 448H1600M0 598H1600M0 748H1600"/>
    <path d="M196 0V900M396 0V900M596 0V900M796 0V900M996 0V900M1196 0V900M1396 0V900"/>
  </g>

  <g transform="translate(350 438)">
    <circle r="206" fill="#09151d" stroke="#5d7885" stroke-width="8"/>
    <circle r="174" fill="url(#motor)" stroke="#9ab0ba" stroke-width="5"/>
    <g fill="#0a151c" stroke="#6e8792" stroke-width="4">
      <path d="M-32-155h64l16 88-48 46-48-46Z"/>
      <path d="M-32 155h64l16-88L0 21l-48 46Z"/>
      <path d="M-155-32v64l88 16 46-48-46-48Z"/>
      <path d="M155-32v64L67 48 21 0l46-48Z"/>
      <path d="M-127-104l45-45 74 51-2 66-66 2Z"/>
      <path d="M127 104l-45 45-74-51 2-66 66-2Z"/>
      <path d="M-127 104l45 45 74-51-2-66-66-2Z"/>
      <path d="M127-104l-45-45-74 51 2 66 66 2Z"/>
    </g>
    <circle r="78" fill="#0d212b" stroke="url(#accent)" stroke-width="7"/>
    <circle r="25" fill="#b8d1d8"/>
    <path d="M0-25V-236" stroke="#d9e9ed" stroke-width="15" stroke-linecap="round"/>
    <ellipse cy="-243" rx="96" ry="14" fill="#d9e9ed" opacity=".86"/>
  </g>

  <g transform="translate(740 300)">
    <rect width="360" height="278" rx="28" fill="#0a1921" stroke="#18bfef" stroke-width="6"/>
    <path d="M28 58H332M28 220H332" stroke="#2c5767" stroke-width="3"/>
    <text x="36" y="124" fill="#ffffff" font-family="Arial, sans-serif" font-size="54" font-weight="700">AIR 20A</text>
    <text x="37" y="174" fill="#7edcf5" font-family="Arial, sans-serif" font-size="28" letter-spacing="7">FOC ESC</text>
    <g fill="#18bfef">
      <circle cx="52" cy="248" r="10"/><circle cx="180" cy="248" r="10"/><circle cx="308" cy="248" r="10"/>
    </g>
  </g>

  <g fill="none" stroke-width="12" stroke-linecap="round" filter="url(#glow)">
    <path d="M556 374C626 344 665 335 740 336" stroke="#ef6675"/>
    <path d="M570 438C638 428 676 428 740 438" stroke="#f0c75e"/>
    <path d="M556 502C626 530 665 536 740 536" stroke="#18bfef"/>
  </g>

  <g transform="translate(1160 318)" font-family="Arial, sans-serif">
    <rect width="300" height="74" rx="37" fill="#102b38" stroke="#5d7885" stroke-width="3"/>
    <text x="150" y="49" text-anchor="middle" fill="#ffffff" font-size="31" font-weight="700">920 KV</text>
    <rect y="96" width="300" height="74" rx="37" fill="#102b38" stroke="#5d7885" stroke-width="3"/>
    <text x="150" y="145" text-anchor="middle" fill="#ffffff" font-size="31" font-weight="700">4S · 16.8 V</text>
    <rect y="192" width="300" height="74" rx="37" fill="#102b38" stroke="#5d7885" stroke-width="3"/>
    <text x="150" y="241" text-anchor="middle" fill="#ffffff" font-size="31" font-weight="700">T1045</text>
  </g>

  <g font-family="Arial, 'Microsoft YaHei', sans-serif">
    <text x="88" y="92" fill="#7edcf5" font-size="28" font-weight="700" letter-spacing="5">AIR GEAR 450 II</text>
    <text x="88" y="786" fill="#ffffff" font-size="58" font-weight="800">无刷电机 × 电调 × FOC</text>
    <text x="90" y="838" fill="#a9bec7" font-size="27">接线 · 选型 · eRPM · 分阶段安全测试</text>
  </g>
</svg>
