<svg xmlns="http://www.w3.org/2000/svg" xmlns:xlink="http://www.w3.org/1999/xlink" viewBox="0 0 169 78" preserveAspectRatio="xMidYMid" style="display: block; shape-rendering: auto; background: rgb(253, 253, 253);" width="169" height="78"><style type="text/css">
  .ld-text text {
    text-anchor: middle;
    dominant-baseline: middle;
    font-size: 63px;
    opacity: 0;
    user-select: none;
    pointer-events: none;
  }
</style>
<g style="transform-origin:84.5px 39px;transform:scale(1)" class="ld-text">
<g transform="translate(84.5,39)">
  <g transform="scale(0.7875) translate(0,0)"><g class="path" style="opacity: 1; transform-origin: -60.36px -0.47px; transform: matrix3d(0.91, 0, 0, 0, 0, 0.91, 0, 0, 0, 0, 0.91, 0, 0, 0, 0, 1); animation: 1s linear -0.528s infinite normal forwards running animate-r1a8olxmec; transform-box: view-box;"><path d="M16.80 30.11L16.80 30.11Q16.80 42.11 24.56 45.95L24.56 45.95Q26.48 46.19 29.64 46.19Q32.80 46.19 36.32 44.99Q39.84 43.79 41.76 42.03L41.76 42.03Q45.84 38.27 46.88 35.55L46.88 35.55L47.28 34.35L48.88 34.99Q48.32 36.83 46.72 39.23Q45.12 41.63 43.08 43.31Q41.04 44.99 37.16 46.39Q33.28 47.79 28.56 47.79L28.56 47.79Q18.48 47.79 12.92 41.95Q7.36 36.11 7.36 25.47L7.36 25.47Q7.36 10.99 16.72 1.63Q26.08-7.73 41.28-7.73L41.28-7.73Q48.32-7.73 51.44-5.21Q54.56-2.69 54.56 2.67L54.56 2.67Q54.56 6.27 51.04 11.55L51.04 11.55Q47.84 16.67 47.84 19.55L47.84 19.55L46.08 19.55Q46.08 17.95 46.72 16.11Q47.36 14.27 47.84 13.47Q48.32 12.67 49.60 10.59L49.60 10.59Q52.72 5.87 52.72 2.83L52.72 2.83Q52.72-3.57 47.44-5.25L47.44-5.25Q44.96-6.05 42.24-6.05Q39.52-6.05 36.48-5.73L36.48-5.73Q33.68-4.85 31.16-3.45Q28.64-2.05 25.92 0.79Q23.20 3.63 21.28 7.39Q19.36 11.15 18.08 17.03Q16.80 22.91 16.80 30.11" style="fill: rgb(81, 202, 204);" transform="translate(-91.320,-20.496)"></path></g><g class="path" style="opacity: 1; transform-origin: -23.52px -5.07px; transform: matrix3d(0.91, 0, 0, 0, 0, 0.91, 0, 0, 0, 0, 0.91, 0, 0, 0, 0, 1); animation: 1s linear -0.396s infinite normal forwards running animate-r1a8olxmec; transform-box: view-box;"><path d="M70.88 38.11Q69.84 39.47 68.04 40.59Q66.24 41.71 63.36 41.71Q60.48 41.71 58.48 39.87Q56.48 38.03 56.48 34.67L56.48 34.67Q56.48 34.03 56.64 32.59L56.64 32.59L61.84 3.79Q63.28-4.13 65.80-7.49Q68.32-10.85 72.48-10.85L72.48-10.85Q75.36-10.85 77.24-8.69Q79.12-6.53 79.12-2.13Q79.12 2.27 75.72 10.43Q72.32 18.59 72.32 22.35L72.32 22.35L70.88 22.35Q70.88 18.11 74.24 10.23Q77.60 2.35 77.60-2.37L77.60-2.37Q77.60-5.25 76.28-7.33Q74.96-9.41 73.04-9.41L73.04-9.41Q72.96-7.33 70.28 9.27Q67.60 25.87 64.96 40.11L64.96 40.11Q67.20 40.11 69.12 37.79Q71.04 35.47 71.84 33.15L71.84 33.15L72.72 30.75L74.16 31.39Q73.92 32.51 72.92 34.63Q71.92 36.75 70.88 38.11" style="fill: rgb(157, 248, 113);" transform="translate(-91.320,-20.496)"></path></g><g class="path" style="opacity: 1; transform-origin: 2.84px 5.29px; transform: matrix3d(0.91, 0, 0, 0, 0, 0.91, 0, 0, 0, 0, 0.91, 0, 0, 0, 0, 1); animation: 1s linear -0.264s infinite normal forwards running animate-r1a8olxmec; transform-box: view-box;"><path d="M91.04 41.71Q84.88 41.71 81.68 38.63Q78.48 35.55 78.48 30.87Q78.48 26.19 79.32 22.87Q80.16 19.55 82.08 16.47Q84 13.39 87.88 11.63Q91.76 9.87 97.56 9.87Q103.36 9.87 106.60 12.95Q109.84 16.03 109.84 21.39L109.84 21.39Q109.84 30.51 105 36.11Q100.16 41.71 91.04 41.71L91.04 41.71 zM87.52 33.47L87.52 33.47Q87.52 39.87 91.24 39.87Q94.96 39.87 97.88 33.43Q100.80 26.99 100.80 18.11L100.80 18.11Q100.80 11.39 97.16 11.39Q93.52 11.39 90.52 17.51Q87.52 23.63 87.52 33.47" style="fill: rgb(224, 255, 119);" transform="translate(-91.320,-20.496)"></path></g><g class="path" style="opacity: 1; transform-origin: 40.08px 5.29px; transform: matrix3d(0.91, 0, 0, 0, 0, 0.91, 0, 0, 0, 0, 0.91, 0, 0, 0, 0, 1); animation: 1s linear -0.132s infinite normal forwards running animate-r1a8olxmec; transform-box: view-box;"><path d="M118.72 11.47L118.72 11.47Q116.80 11.47 114.72 13.71L114.72 13.71L113.52 12.75Q114.08 11.63 116 10.75Q117.92 9.87 120.24 9.87L120.24 9.87Q127.52 9.87 127.52 16.43L127.52 16.43Q127.52 19.23 126.08 26.43Q124.64 33.63 124.64 35.87L124.64 35.87Q124.64 39.31 127.92 39.31L127.92 39.31Q130.24 39.31 132.44 36.59Q134.64 33.87 136.24 29.07L136.24 29.07L139.60 10.59Q145.52 10.59 148.24 10.11L148.24 10.11L149.28 9.87L143.92 40.11Q146.32 39.87 147.92 37.87L147.92 37.87L149.12 38.83Q146.72 41.71 143.12 41.71Q139.52 41.71 137.52 39.95Q135.52 38.19 135.44 34.99L135.44 34.99Q132.08 41.71 125.52 41.71L125.52 41.71Q120.80 41.71 118.16 39.03Q115.52 36.35 115.52 31.63L115.52 31.63Q115.52 29.15 117.04 22.07Q118.56 14.99 118.72 11.47" style="fill: rgb(222, 157, 214);" transform="translate(-91.320,-20.496)"></path></g><g class="path" style="opacity: 1; transform-origin: 80.48px -5.07px; transform: matrix3d(0.91, 0, 0, 0, 0, 0.91, 0, 0, 0, 0, 0.91, 0, 0, 0, 0, 1); animation: 1s linear 0s infinite normal forwards running animate-r1a8olxmec; transform-box: view-box;"><path d="M181.44 41.71L181.44 41.71Q174.40 41.71 173.76 35.71L173.76 35.71Q170.24 41.71 164.80 41.71Q159.36 41.71 156.48 38.63Q153.60 35.55 153.60 30.19L153.60 30.19Q153.60 20.75 158.08 15.31Q162.56 9.87 169.68 9.87L169.68 9.87Q173.76 9.87 176 12.35L176 12.35Q176.96 13.63 177.20 14.27L177.20 14.27L181.52-9.25Q179.12-9.01 177.52-7.01L177.52-7.01L176.32-7.97Q178.72-10.85 182.36-10.85Q186-10.85 188-9.01Q190-7.17 190-3.81L190-3.81Q190-3.17 189.84-1.73L189.84-1.73Q185.92 20.27 182.24 40.11L182.24 40.11Q184.64 39.87 186.24 37.87L186.24 37.87L187.44 38.83Q185.04 41.71 181.44 41.71 zM162.64 33.47Q162.64 37.15 163.40 38.51Q164.16 39.87 165.80 39.87Q167.44 39.87 168.96 38.75Q170.48 37.63 171.52 35.87L171.52 35.87Q173.44 32.91 174.24 30.83L174.24 30.83L176.56 18.19Q176.40 15.63 174.88 13.51Q173.36 11.39 169.68 11.39L169.68 11.39Q167.12 11.39 164.88 18.91Q162.64 26.43 162.64 33.47L162.64 33.47" style="fill: rgb(255, 112, 142);" transform="translate(-91.320,-20.496)"></path></g></g><text dy="0.35em" fill="#51cacc" font-family="Sail" font-size="63">Cloud</text>
</g>
</g><style type="text/css">@keyframes animate-r1a8olxmec { 0.00% {transform: translate(0.00px,0.00px) rotate(0.00deg) scale(0.91, 0.91) skew(0deg, 0.00deg) ;opacity: 1.00;}4.00% {transform: translate(0.00px,0.00px) rotate(0.00deg) scale(0.91, 0.91) ;}8.00% {animation-timing-function: cubic-bezier(0.69,0.60,0.35,0.27);transform: translate(0.00px,0.00px) rotate(0.00deg) scale(0.91, 0.91) ;}14.00% {transform: translate(0.00px,0.00px) rotate(0.00deg) scale(0.93, 0.93) ;}18.00% {transform: translate(0.00px,0.00px) rotate(0.00deg) scale(0.94, 0.94) ;}22.00% {animation-timing-function: cubic-bezier(0.67,0.66,0.34,0.33);transform: translate(0.00px,0.00px) rotate(0.00deg) scale(0.96, 0.96) ;}26.00% {transform: translate(0.00px,0.00px) rotate(0.00deg) scale(0.97, 0.97) ;}30.00% {transform: translate(0.00px,0.00px) rotate(0.00deg) scale(0.99, 0.99) ;}34.00% {animation-timing-function: cubic-bezier(0.65,0.71,0.32,0.38);transform: translate(0.00px,0.00px) rotate(0.00deg) scale(1.01, 1.01) ;}40.00% {animation-timing-function: cubic-bezier(0.64,0.74,0.31,0.41);transform: translate(0.00px,0.00px) rotate(0.00deg) scale(1.02, 1.02) ;}46.00% {animation-timing-function: cubic-bezier(0.60,0.91,0.23,0.63);transform: translate(0.00px,0.00px) rotate(0.00deg) scale(1.03, 1.03) ;}50.00% {transform: translate(0.00px,0.00px) rotate(0.00deg) scale(1.03, 1.03) ;}54.00% {transform: translate(0.00px,0.00px) rotate(0.00deg) scale(1.03, 1.03) ;}58.00% {animation-timing-function: cubic-bezier(0.69,0.60,0.35,0.27);transform: translate(0.00px,0.00px) rotate(0.00deg) scale(1.03, 1.03) ;}64.00% {transform: translate(0.00px,0.00px) rotate(0.00deg) scale(1.01, 1.01) ;}68.00% {transform: translate(0.00px,0.00px) rotate(0.00deg) scale(1.00, 1.00) ;}72.00% {animation-timing-function: cubic-bezier(0.67,0.66,0.34,0.33);transform: translate(0.00px,0.00px) rotate(0.00deg) scale(0.98, 0.98) ;}76.00% {animation-timing-function: cubic-bezier(0.66,0.68,0.33,0.35);transform: translate(0.00px,0.00px) rotate(0.00deg) scale(0.97, 0.97) ;}82.00% {animation-timing-function: cubic-bezier(0.65,0.71,0.32,0.38);transform: translate(0.00px,0.00px) rotate(0.00deg) scale(0.94, 0.94) ;}88.00% {animation-timing-function: cubic-bezier(0.65,0.73,0.31,0.40);transform: translate(0.00px,0.00px) rotate(0.00deg) scale(0.92, 0.92) ;}94.00% {animation-timing-function: cubic-bezier(0.63,0.80,0.28,0.48);transform: translate(0.00px,0.00px) rotate(0.00deg) scale(0.91, 0.91) ;}100.00% {animation-timing-function: cubic-bezier(0.63,0.80,0.28,0.48);transform: translate(0.00px,0.00px) rotate(0.00deg) scale(0.91, 0.91) ;} }</style><!-- [ldio] generated by https://loading.io --></svg>